<?xml version="1.0" standalone="no"?><svg xmlns="http://www.w3.org/2000/svg" viewBox="0 0 1440 320"><path fill="#5cd6ab" fill-opacity="1" d="M0,224L18.5,218.7C36.9,213,74,203,111,192C147.7,181,185,171,222,144C258.5,117,295,75,332,74.7C369.2,75,406,117,443,138.7C480,160,517,160,554,160C590.8,160,628,160,665,170.7C701.5,181,738,203,775,202.7C812.3,203,849,181,886,197.3C923.1,213,960,267,997,250.7C1033.8,235,1071,149,1108,122.7C1144.6,96,1182,128,1218,154.7C1255.4,181,1292,203,1329,202.7C1366.2,203,1403,181,1422,170.7L1440,160L1440,0L1421.5,0C1403.1,0,1366,0,1329,0C1292.3,0,1255,0,1218,0C1181.5,0,1145,0,1108,0C1070.8,0,1034,0,997,0C960,0,923,0,886,0C849.2,0,812,0,775,0C738.5,0,702,0,665,0C627.7,0,591,0,554,0C516.9,0,480,0,443,0C406.2,0,369,0,332,0C295.4,0,258,0,222,0C184.6,0,148,0,111,0C73.8,0,37,0,18,0L0,0Z"></path></svg>